<mxfile host="Electron" modified="2024-03-18T09:18:33.064Z" agent="Mozilla/5.0 (Windows NT 10.0; Win64; x64) AppleWebKit/537.36 (KHTML, like Gecko) draw.io/24.0.4 Chrome/120.0.6099.109 Electron/28.1.0 Safari/537.36" etag="HjnVHZR3xFCM4TWhjk5B" version="24.0.4" type="device">
  <diagram id="C5RBs43oDa-KdzZeNtuy" name="Page-1">
    <mxGraphModel dx="994" dy="676" grid="1" gridSize="10" guides="1" tooltips="1" connect="1" arrows="1" fold="1" page="1" pageScale="1" pageWidth="1169" pageHeight="1654" math="0" shadow="0">
      <root>
        <mxCell id="WIyWlLk6GJQsqaUBKTNV-0" />
        <mxCell id="WIyWlLk6GJQsqaUBKTNV-1" parent="WIyWlLk6GJQsqaUBKTNV-0" />
        <mxCell id="vOvHCYOqFdmL3Q4cGMV2-38" value="" style="endArrow=oval;html=1;rounded=0;strokeColor=#A50040;endFill=1;startArrow=block;startFill=0;dashed=1;exitX=0.645;exitY=1.037;exitDx=0;exitDy=0;exitPerimeter=0;labelBackgroundColor=none;fontColor=default;fillColor=#d80073;" parent="WIyWlLk6GJQsqaUBKTNV-1" source="kU64lX1X_HIVFnXj1w8X-65" edge="1">
          <mxGeometry width="50" height="50" relative="1" as="geometry">
            <mxPoint x="930" y="404.8717792217548" as="sourcePoint" />
            <mxPoint x="530" y="968" as="targetPoint" />
            <Array as="points">
              <mxPoint x="930" y="1080" />
              <mxPoint x="530" y="1080" />
            </Array>
          </mxGeometry>
        </mxCell>
        <mxCell id="vOvHCYOqFdmL3Q4cGMV2-37" value="" style="endArrow=oval;html=1;rounded=0;strokeColor=#A50040;endFill=1;startArrow=none;startFill=0;dashed=1;labelBackgroundColor=none;fontColor=default;fillColor=#d80073;" parent="WIyWlLk6GJQsqaUBKTNV-1" edge="1">
          <mxGeometry width="50" height="50" relative="1" as="geometry">
            <mxPoint x="530" y="1080" as="sourcePoint" />
            <mxPoint x="210" y="1048" as="targetPoint" />
            <Array as="points">
              <mxPoint x="210" y="1080" />
            </Array>
          </mxGeometry>
        </mxCell>
        <mxCell id="vOvHCYOqFdmL3Q4cGMV2-30" value="" style="endArrow=none;html=1;rounded=0;strokeColor=#A50040;startArrow=block;startFill=0;exitX=0.472;exitY=1.11;exitDx=0;exitDy=0;exitPerimeter=0;entryX=0.008;entryY=0.453;entryDx=0;entryDy=0;entryPerimeter=0;labelBackgroundColor=none;fontColor=default;fillColor=#d80073;" parent="WIyWlLk6GJQsqaUBKTNV-1" source="kU64lX1X_HIVFnXj1w8X-26" target="vOvHCYOqFdmL3Q4cGMV2-9" edge="1">
          <mxGeometry width="50" height="50" relative="1" as="geometry">
            <mxPoint x="230" y="420" as="sourcePoint" />
            <mxPoint x="550" y="968" as="targetPoint" />
            <Array as="points">
              <mxPoint x="230" y="710" />
              <mxPoint x="530" y="710" />
              <mxPoint x="530" y="968" />
            </Array>
          </mxGeometry>
        </mxCell>
        <mxCell id="oHZwISHsFdIdbKGNgW1y-18" value="" style="endArrow=block;html=1;rounded=0;endFill=0;strokeColor=#2D7600;exitX=-0.007;exitY=0.047;exitDx=0;exitDy=0;exitPerimeter=0;labelBackgroundColor=none;fontColor=default;fillColor=#60a917;" parent="WIyWlLk6GJQsqaUBKTNV-1" source="kU64lX1X_HIVFnXj1w8X-4" target="oHZwISHsFdIdbKGNgW1y-10" edge="1">
          <mxGeometry width="50" height="50" relative="1" as="geometry">
            <mxPoint x="160" y="210" as="sourcePoint" />
            <mxPoint x="239" y="492" as="targetPoint" />
            <Array as="points">
              <mxPoint x="150" y="210" />
              <mxPoint x="150" y="500" />
              <mxPoint x="490" y="500" />
              <mxPoint x="490" y="640" />
              <mxPoint x="540" y="640" />
              <mxPoint x="540" y="790" />
            </Array>
          </mxGeometry>
        </mxCell>
        <mxCell id="kU64lX1X_HIVFnXj1w8X-131" value="Yes" style="rounded=0;html=1;jettySize=auto;orthogonalLoop=1;fontSize=11;endArrow=none;endFill=0;endSize=8;strokeWidth=1;shadow=0;labelBackgroundColor=none;edgeStyle=orthogonalEdgeStyle;strokeColor=#A50040;exitX=0;exitY=0.5;exitDx=0;exitDy=0;fontColor=default;fillColor=#d80073;" parent="WIyWlLk6GJQsqaUBKTNV-1" source="kU64lX1X_HIVFnXj1w8X-130" edge="1">
          <mxGeometry x="-0.9883" y="10" relative="1" as="geometry">
            <mxPoint as="offset" />
            <mxPoint x="800" y="820" as="sourcePoint" />
            <mxPoint x="500" y="490" as="targetPoint" />
            <Array as="points">
              <mxPoint x="840" y="820" />
              <mxPoint x="840" y="650" />
              <mxPoint x="500" y="650" />
            </Array>
          </mxGeometry>
        </mxCell>
        <mxCell id="kU64lX1X_HIVFnXj1w8X-139" value="" style="endArrow=none;html=1;rounded=0;strokeColor=#A50040;endFill=0;startArrow=oval;startFill=1;dashed=1;labelBackgroundColor=none;fontColor=default;fillColor=#d80073;" parent="WIyWlLk6GJQsqaUBKTNV-1" edge="1">
          <mxGeometry width="50" height="50" relative="1" as="geometry">
            <mxPoint x="840" y="650" as="sourcePoint" />
            <mxPoint x="897" y="490" as="targetPoint" />
            <Array as="points">
              <mxPoint x="897" y="650" />
            </Array>
          </mxGeometry>
        </mxCell>
        <mxCell id="WIyWlLk6GJQsqaUBKTNV-2" value="" style="rounded=0;html=1;jettySize=auto;orthogonalLoop=1;fontSize=11;endArrow=classic;endFill=1;endSize=8;strokeWidth=1;shadow=0;labelBackgroundColor=none;edgeStyle=orthogonalEdgeStyle;strokeColor=#006EAF;fontColor=default;fillColor=#1ba1e2;" parent="WIyWlLk6GJQsqaUBKTNV-1" source="WIyWlLk6GJQsqaUBKTNV-3" target="WIyWlLk6GJQsqaUBKTNV-6" edge="1">
          <mxGeometry relative="1" as="geometry" />
        </mxCell>
        <mxCell id="WIyWlLk6GJQsqaUBKTNV-3" value="Launch" style="rounded=0;whiteSpace=wrap;html=1;fontSize=12;glass=0;strokeWidth=1;shadow=0;labelBackgroundColor=none;fillColor=#182E3E;strokeColor=#FFFFFF;fontColor=#FFFFFF;" parent="WIyWlLk6GJQsqaUBKTNV-1" vertex="1">
          <mxGeometry x="572.12" y="100" width="120" height="40" as="geometry" />
        </mxCell>
        <mxCell id="WIyWlLk6GJQsqaUBKTNV-4" value="Yes" style="rounded=0;html=1;jettySize=auto;orthogonalLoop=1;fontSize=11;endArrow=classic;endFill=1;endSize=8;strokeWidth=1;shadow=0;labelBackgroundColor=none;edgeStyle=orthogonalEdgeStyle;strokeColor=#006EAF;fontColor=default;fillColor=#1ba1e2;" parent="WIyWlLk6GJQsqaUBKTNV-1" source="WIyWlLk6GJQsqaUBKTNV-6" edge="1">
          <mxGeometry x="-0.5055" y="24" relative="1" as="geometry">
            <mxPoint as="offset" />
            <mxPoint x="632.12" y="310" as="targetPoint" />
          </mxGeometry>
        </mxCell>
        <mxCell id="WIyWlLk6GJQsqaUBKTNV-5" value="No" style="edgeStyle=orthogonalEdgeStyle;rounded=0;html=1;jettySize=auto;orthogonalLoop=1;fontSize=11;endArrow=classic;endFill=1;endSize=8;strokeWidth=1;shadow=0;labelBackgroundColor=none;strokeColor=#006EAF;fontColor=default;fillColor=#1ba1e2;" parent="WIyWlLk6GJQsqaUBKTNV-1" source="WIyWlLk6GJQsqaUBKTNV-6" target="WIyWlLk6GJQsqaUBKTNV-7" edge="1">
          <mxGeometry x="-0.3411" y="-10" relative="1" as="geometry">
            <mxPoint as="offset" />
          </mxGeometry>
        </mxCell>
        <mxCell id="WIyWlLk6GJQsqaUBKTNV-6" value="Does a&lt;div&gt;user exist?&lt;/div&gt;" style="rhombus;whiteSpace=wrap;html=1;shadow=0;fontFamily=Helvetica;fontSize=12;align=center;strokeWidth=1;spacing=6;spacingTop=-4;rounded=0;labelBackgroundColor=none;fillColor=#182E3E;strokeColor=#FFFFFF;fontColor=#FFFFFF;" parent="WIyWlLk6GJQsqaUBKTNV-1" vertex="1">
          <mxGeometry x="582.12" y="190" width="100" height="80" as="geometry" />
        </mxCell>
        <mxCell id="kU64lX1X_HIVFnXj1w8X-55" value="" style="edgeStyle=orthogonalEdgeStyle;rounded=0;orthogonalLoop=1;jettySize=auto;html=1;labelBackgroundColor=none;strokeColor=#006EAF;fontColor=default;fillColor=#1ba1e2;" parent="WIyWlLk6GJQsqaUBKTNV-1" source="WIyWlLk6GJQsqaUBKTNV-7" edge="1">
          <mxGeometry relative="1" as="geometry">
            <mxPoint x="692.37" y="330" as="targetPoint" />
            <Array as="points">
              <mxPoint x="772.37" y="330" />
            </Array>
          </mxGeometry>
        </mxCell>
        <mxCell id="WIyWlLk6GJQsqaUBKTNV-7" value="Create New User&lt;div&gt;Screen&lt;/div&gt;" style="rounded=0;whiteSpace=wrap;html=1;fontSize=12;glass=0;strokeWidth=1;shadow=0;labelBackgroundColor=none;fillColor=#182E3E;strokeColor=#FFFFFF;fontColor=#FFFFFF;" parent="WIyWlLk6GJQsqaUBKTNV-1" vertex="1">
          <mxGeometry x="720" y="210" width="120" height="40" as="geometry" />
        </mxCell>
        <mxCell id="kU64lX1X_HIVFnXj1w8X-32" value="" style="edgeStyle=orthogonalEdgeStyle;rounded=0;orthogonalLoop=1;jettySize=auto;html=1;labelBackgroundColor=none;strokeColor=#006EAF;fontColor=default;fillColor=#1ba1e2;" parent="WIyWlLk6GJQsqaUBKTNV-1" source="WIyWlLk6GJQsqaUBKTNV-12" target="kU64lX1X_HIVFnXj1w8X-31" edge="1">
          <mxGeometry relative="1" as="geometry" />
        </mxCell>
        <mxCell id="WIyWlLk6GJQsqaUBKTNV-12" value="Log In Screen" style="rounded=0;whiteSpace=wrap;html=1;fontSize=12;glass=0;strokeWidth=1;shadow=0;labelBackgroundColor=none;fillColor=#182E3E;strokeColor=#FFFFFF;fontColor=#FFFFFF;" parent="WIyWlLk6GJQsqaUBKTNV-1" vertex="1">
          <mxGeometry x="572.12" y="310" width="120" height="40" as="geometry" />
        </mxCell>
        <mxCell id="kU64lX1X_HIVFnXj1w8X-0" value="SQLite3" style="shape=cylinder3;whiteSpace=wrap;html=1;boundedLbl=1;backgroundOutline=1;size=15;rounded=0;labelBackgroundColor=none;fillColor=#182E3E;strokeColor=#FFFFFF;fontColor=#FFFFFF;" parent="WIyWlLk6GJQsqaUBKTNV-1" vertex="1">
          <mxGeometry x="250.75" y="100" width="115.5" height="80" as="geometry" />
        </mxCell>
        <mxCell id="kU64lX1X_HIVFnXj1w8X-4" value="Passwords" style="swimlane;fontStyle=0;childLayout=stackLayout;horizontal=1;startSize=30;horizontalStack=0;resizeParent=1;resizeParentMax=0;resizeLast=0;collapsible=1;marginBottom=0;whiteSpace=wrap;html=1;rounded=0;labelBackgroundColor=none;fillColor=#182E3E;strokeColor=#FFFFFF;fontColor=#FFFFFF;" parent="WIyWlLk6GJQsqaUBKTNV-1" vertex="1">
          <mxGeometry x="168.75" y="200" width="130" height="210" as="geometry">
            <mxRectangle x="178.75" y="150" width="60" height="30" as="alternateBounds" />
          </mxGeometry>
        </mxCell>
        <mxCell id="kU64lX1X_HIVFnXj1w8X-5" value="user&amp;nbsp; &amp;nbsp; &amp;nbsp;🔑" style="text;strokeColor=none;fillColor=none;align=left;verticalAlign=middle;spacingLeft=4;spacingRight=4;overflow=hidden;points=[[0,0.5],[1,0.5]];portConstraint=eastwest;rotatable=0;whiteSpace=wrap;html=1;rounded=0;labelBackgroundColor=none;fontColor=#FFFFFF;" parent="kU64lX1X_HIVFnXj1w8X-4" vertex="1">
          <mxGeometry y="30" width="130" height="30" as="geometry" />
        </mxCell>
        <mxCell id="kU64lX1X_HIVFnXj1w8X-6" value="account" style="text;strokeColor=none;fillColor=none;align=left;verticalAlign=middle;spacingLeft=4;spacingRight=4;overflow=hidden;points=[[0,0.5],[1,0.5]];portConstraint=eastwest;rotatable=0;whiteSpace=wrap;html=1;rounded=0;labelBackgroundColor=none;fontColor=#FFFFFF;" parent="kU64lX1X_HIVFnXj1w8X-4" vertex="1">
          <mxGeometry y="60" width="130" height="30" as="geometry" />
        </mxCell>
        <mxCell id="kU64lX1X_HIVFnXj1w8X-7" value="username" style="text;strokeColor=none;fillColor=none;align=left;verticalAlign=middle;spacingLeft=4;spacingRight=4;overflow=hidden;points=[[0,0.5],[1,0.5]];portConstraint=eastwest;rotatable=0;whiteSpace=wrap;html=1;rounded=0;labelBackgroundColor=none;fontColor=#FFFFFF;" parent="kU64lX1X_HIVFnXj1w8X-4" vertex="1">
          <mxGeometry y="90" width="130" height="30" as="geometry" />
        </mxCell>
        <mxCell id="kU64lX1X_HIVFnXj1w8X-24" value="password" style="text;strokeColor=none;fillColor=none;align=left;verticalAlign=middle;spacingLeft=4;spacingRight=4;overflow=hidden;points=[[0,0.5],[1,0.5]];portConstraint=eastwest;rotatable=0;whiteSpace=wrap;html=1;rounded=0;labelBackgroundColor=none;fontColor=#FFFFFF;" parent="kU64lX1X_HIVFnXj1w8X-4" vertex="1">
          <mxGeometry y="120" width="130" height="30" as="geometry" />
        </mxCell>
        <mxCell id="kU64lX1X_HIVFnXj1w8X-25" value="pw_key" style="text;strokeColor=none;fillColor=none;align=left;verticalAlign=middle;spacingLeft=4;spacingRight=4;overflow=hidden;points=[[0,0.5],[1,0.5]];portConstraint=eastwest;rotatable=0;whiteSpace=wrap;html=1;rounded=0;labelBackgroundColor=none;fontColor=#FFFFFF;" parent="kU64lX1X_HIVFnXj1w8X-4" vertex="1">
          <mxGeometry y="150" width="130" height="30" as="geometry" />
        </mxCell>
        <mxCell id="kU64lX1X_HIVFnXj1w8X-26" value="last_modified" style="text;strokeColor=none;fillColor=none;align=left;verticalAlign=middle;spacingLeft=4;spacingRight=4;overflow=hidden;points=[[0,0.5],[1,0.5]];portConstraint=eastwest;rotatable=0;whiteSpace=wrap;html=1;rounded=0;labelBackgroundColor=none;fontColor=#FFFFFF;" parent="kU64lX1X_HIVFnXj1w8X-4" vertex="1">
          <mxGeometry y="180" width="130" height="30" as="geometry" />
        </mxCell>
        <mxCell id="kU64lX1X_HIVFnXj1w8X-8" value="Users" style="swimlane;fontStyle=0;childLayout=stackLayout;horizontal=1;startSize=30;horizontalStack=0;resizeParent=1;resizeParentMax=0;resizeLast=0;collapsible=1;marginBottom=0;whiteSpace=wrap;html=1;rounded=0;labelBackgroundColor=none;fillColor=#182E3E;strokeColor=#FFFFFF;fontColor=#FFFFFF;" parent="WIyWlLk6GJQsqaUBKTNV-1" vertex="1">
          <mxGeometry x="318.25" y="200" width="130" height="180" as="geometry">
            <mxRectangle x="560" y="150" width="60" height="30" as="alternateBounds" />
          </mxGeometry>
        </mxCell>
        <mxCell id="kU64lX1X_HIVFnXj1w8X-9" value="user&amp;nbsp; &amp;nbsp; &amp;nbsp;🔑" style="text;strokeColor=none;fillColor=none;align=left;verticalAlign=middle;spacingLeft=4;spacingRight=4;overflow=hidden;points=[[0,0.5],[1,0.5]];portConstraint=eastwest;rotatable=0;whiteSpace=wrap;html=1;rounded=0;labelBackgroundColor=none;fontColor=#FFFFFF;" parent="kU64lX1X_HIVFnXj1w8X-8" vertex="1">
          <mxGeometry y="30" width="130" height="30" as="geometry" />
        </mxCell>
        <mxCell id="kU64lX1X_HIVFnXj1w8X-10" value="master_pw" style="text;strokeColor=none;fillColor=none;align=left;verticalAlign=middle;spacingLeft=4;spacingRight=4;overflow=hidden;points=[[0,0.5],[1,0.5]];portConstraint=eastwest;rotatable=0;whiteSpace=wrap;html=1;rounded=0;labelBackgroundColor=none;fontColor=#FFFFFF;" parent="kU64lX1X_HIVFnXj1w8X-8" vertex="1">
          <mxGeometry y="60" width="130" height="30" as="geometry" />
        </mxCell>
        <mxCell id="kU64lX1X_HIVFnXj1w8X-11" value="master_key" style="text;strokeColor=none;fillColor=none;align=left;verticalAlign=middle;spacingLeft=4;spacingRight=4;overflow=hidden;points=[[0,0.5],[1,0.5]];portConstraint=eastwest;rotatable=0;whiteSpace=wrap;html=1;rounded=0;labelBackgroundColor=none;fontColor=#FFFFFF;" parent="kU64lX1X_HIVFnXj1w8X-8" vertex="1">
          <mxGeometry y="90" width="130" height="30" as="geometry" />
        </mxCell>
        <mxCell id="kU64lX1X_HIVFnXj1w8X-20" value="master_last_modified" style="text;strokeColor=none;fillColor=none;align=left;verticalAlign=middle;spacingLeft=4;spacingRight=4;overflow=hidden;points=[[0,0.5],[1,0.5]];portConstraint=eastwest;rotatable=0;whiteSpace=wrap;html=1;rounded=0;labelBackgroundColor=none;fontColor=#FFFFFF;" parent="kU64lX1X_HIVFnXj1w8X-8" vertex="1">
          <mxGeometry y="120" width="130" height="30" as="geometry" />
        </mxCell>
        <mxCell id="kU64lX1X_HIVFnXj1w8X-23" value="last_locked" style="text;strokeColor=none;fillColor=none;align=left;verticalAlign=middle;spacingLeft=4;spacingRight=4;overflow=hidden;points=[[0,0.5],[1,0.5]];portConstraint=eastwest;rotatable=0;whiteSpace=wrap;html=1;rounded=0;labelBackgroundColor=none;fontColor=#FFFFFF;" parent="kU64lX1X_HIVFnXj1w8X-8" vertex="1">
          <mxGeometry y="150" width="130" height="30" as="geometry" />
        </mxCell>
        <mxCell id="kU64lX1X_HIVFnXj1w8X-31" value="User and&lt;div&gt;password&lt;/div&gt;&lt;div&gt;match?&lt;/div&gt;" style="rhombus;whiteSpace=wrap;html=1;shadow=0;fontFamily=Helvetica;fontSize=12;align=center;strokeWidth=1;spacing=6;spacingTop=-4;rounded=0;labelBackgroundColor=none;fillColor=#182E3E;strokeColor=#FFFFFF;fontColor=#FFFFFF;" parent="WIyWlLk6GJQsqaUBKTNV-1" vertex="1">
          <mxGeometry x="569.87" y="390" width="124.5" height="80" as="geometry" />
        </mxCell>
        <mxCell id="kU64lX1X_HIVFnXj1w8X-34" value="Yes" style="rounded=0;html=1;jettySize=auto;orthogonalLoop=1;fontSize=11;endArrow=classic;endFill=1;endSize=8;strokeWidth=1;shadow=0;labelBackgroundColor=none;edgeStyle=orthogonalEdgeStyle;strokeColor=#006EAF;fontColor=default;fillColor=#1ba1e2;" parent="WIyWlLk6GJQsqaUBKTNV-1" edge="1">
          <mxGeometry x="-0.4997" y="24" relative="1" as="geometry">
            <mxPoint as="offset" />
            <mxPoint x="632.12" y="470" as="sourcePoint" />
            <mxPoint x="632.12" y="510" as="targetPoint" />
          </mxGeometry>
        </mxCell>
        <mxCell id="kU64lX1X_HIVFnXj1w8X-35" value="No" style="edgeStyle=orthogonalEdgeStyle;rounded=0;html=1;jettySize=auto;orthogonalLoop=1;fontSize=11;endArrow=classic;endFill=1;endSize=8;strokeWidth=1;shadow=0;labelBackgroundColor=none;entryX=0;entryY=0.5;entryDx=0;entryDy=0;exitX=0;exitY=0.5;exitDx=0;exitDy=0;strokeColor=#006EAF;fontColor=default;fillColor=#1ba1e2;" parent="WIyWlLk6GJQsqaUBKTNV-1" source="kU64lX1X_HIVFnXj1w8X-31" target="WIyWlLk6GJQsqaUBKTNV-12" edge="1">
          <mxGeometry x="-1" y="20" relative="1" as="geometry">
            <mxPoint as="offset" />
            <mxPoint x="567.62" y="430" as="sourcePoint" />
            <mxPoint x="497.62" y="430" as="targetPoint" />
            <Array as="points">
              <mxPoint x="551.62" y="430" />
              <mxPoint x="551.62" y="330" />
            </Array>
          </mxGeometry>
        </mxCell>
        <mxCell id="kU64lX1X_HIVFnXj1w8X-38" value="Is user&amp;nbsp;&lt;div&gt;locked out?&lt;/div&gt;" style="rhombus;whiteSpace=wrap;html=1;shadow=0;fontFamily=Helvetica;fontSize=12;align=center;strokeWidth=1;spacing=6;spacingTop=-4;rounded=0;labelBackgroundColor=none;fillColor=#182E3E;strokeColor=#FFFFFF;fontColor=#FFFFFF;" parent="WIyWlLk6GJQsqaUBKTNV-1" vertex="1">
          <mxGeometry x="576.62" y="510" width="111" height="80" as="geometry" />
        </mxCell>
        <mxCell id="kU64lX1X_HIVFnXj1w8X-39" value="No" style="rounded=0;html=1;jettySize=auto;orthogonalLoop=1;fontSize=11;endArrow=classic;endFill=1;endSize=8;strokeWidth=1;shadow=0;labelBackgroundColor=none;edgeStyle=orthogonalEdgeStyle;entryX=0.5;entryY=0;entryDx=0;entryDy=0;strokeColor=#006EAF;fontColor=default;fillColor=#1ba1e2;" parent="WIyWlLk6GJQsqaUBKTNV-1" target="kU64lX1X_HIVFnXj1w8X-49" edge="1">
          <mxGeometry x="-0.7074" y="24" relative="1" as="geometry">
            <mxPoint as="offset" />
            <mxPoint x="632.12" y="590" as="sourcePoint" />
            <mxPoint x="632.12" y="630" as="targetPoint" />
          </mxGeometry>
        </mxCell>
        <mxCell id="kU64lX1X_HIVFnXj1w8X-40" value="Yes" style="edgeStyle=orthogonalEdgeStyle;rounded=0;html=1;jettySize=auto;orthogonalLoop=1;fontSize=11;endArrow=classic;endFill=1;endSize=8;strokeWidth=1;shadow=0;labelBackgroundColor=none;strokeColor=#006EAF;fontColor=default;fillColor=#1ba1e2;" parent="WIyWlLk6GJQsqaUBKTNV-1" target="kU64lX1X_HIVFnXj1w8X-41" edge="1">
          <mxGeometry x="-0.4835" y="-20" relative="1" as="geometry">
            <mxPoint as="offset" />
            <mxPoint x="686" y="550" as="sourcePoint" />
          </mxGeometry>
        </mxCell>
        <mxCell id="kU64lX1X_HIVFnXj1w8X-41" value="Lock Out Screen" style="rounded=0;whiteSpace=wrap;html=1;fontSize=12;glass=0;strokeWidth=1;shadow=0;labelBackgroundColor=none;fillColor=#182E3E;strokeColor=#FFFFFF;fontColor=#FFFFFF;" parent="WIyWlLk6GJQsqaUBKTNV-1" vertex="1">
          <mxGeometry x="726" y="530" width="120" height="40" as="geometry" />
        </mxCell>
        <mxCell id="kU64lX1X_HIVFnXj1w8X-48" value="" style="edgeStyle=orthogonalEdgeStyle;rounded=0;orthogonalLoop=1;jettySize=auto;html=1;labelBackgroundColor=none;strokeColor=#006EAF;fontColor=default;fillColor=#1ba1e2;" parent="WIyWlLk6GJQsqaUBKTNV-1" source="kU64lX1X_HIVFnXj1w8X-41" target="kU64lX1X_HIVFnXj1w8X-47" edge="1">
          <mxGeometry relative="1" as="geometry">
            <mxPoint x="786" y="570" as="sourcePoint" />
            <mxPoint x="786" y="650" as="targetPoint" />
          </mxGeometry>
        </mxCell>
        <mxCell id="kU64lX1X_HIVFnXj1w8X-47" value="Exit" style="rhombus;whiteSpace=wrap;html=1;shadow=0;fontFamily=Helvetica;fontSize=12;align=center;strokeWidth=1;spacing=6;spacingTop=-4;rounded=0;labelBackgroundColor=none;fillColor=#182E3E;strokeColor=#FFFFFF;fontColor=#FFFFFF;" parent="WIyWlLk6GJQsqaUBKTNV-1" vertex="1">
          <mxGeometry x="759.62" y="590" width="52.75" height="50" as="geometry" />
        </mxCell>
        <mxCell id="kU64lX1X_HIVFnXj1w8X-49" value="Start Menu" style="rounded=0;whiteSpace=wrap;html=1;fontSize=12;glass=0;strokeWidth=1;shadow=0;labelBackgroundColor=none;fillColor=#182E3E;strokeColor=#FFFFFF;fontColor=#FFFFFF;" parent="WIyWlLk6GJQsqaUBKTNV-1" vertex="1">
          <mxGeometry x="246.01" y="660" width="772.22" height="40" as="geometry" />
        </mxCell>
        <mxCell id="kU64lX1X_HIVFnXj1w8X-65" value="&lt;div&gt;&lt;br&gt;&lt;/div&gt;Logs" style="shape=note;whiteSpace=wrap;html=1;backgroundOutline=1;darkOpacity=0.05;rounded=0;labelBackgroundColor=none;fillColor=#182E3E;strokeColor=#FFFFFF;fontColor=#FFFFFF;" parent="WIyWlLk6GJQsqaUBKTNV-1" vertex="1">
          <mxGeometry x="880.63" y="300" width="77.63" height="100" as="geometry" />
        </mxCell>
        <mxCell id="kU64lX1X_HIVFnXj1w8X-66" value="No&lt;div&gt;x3&lt;/div&gt;" style="edgeStyle=orthogonalEdgeStyle;rounded=0;html=1;jettySize=auto;orthogonalLoop=1;fontSize=11;endArrow=classic;endFill=1;endSize=8;strokeWidth=1;shadow=0;labelBackgroundColor=none;entryX=0.5;entryY=0;entryDx=0;entryDy=0;exitX=1;exitY=0.5;exitDx=0;exitDy=0;strokeColor=#006EAF;fontColor=default;fillColor=#1ba1e2;" parent="WIyWlLk6GJQsqaUBKTNV-1" edge="1">
          <mxGeometry x="-0.8121" y="-20" relative="1" as="geometry">
            <mxPoint as="offset" />
            <mxPoint x="694.37" y="430" as="sourcePoint" />
            <mxPoint x="786" y="530" as="targetPoint" />
            <Array as="points">
              <mxPoint x="786.37" y="430" />
            </Array>
          </mxGeometry>
        </mxCell>
        <mxCell id="kU64lX1X_HIVFnXj1w8X-67" value="" style="endArrow=block;html=1;rounded=0;strokeColor=#A50040;endFill=0;startArrow=oval;startFill=1;dashed=1;labelBackgroundColor=none;fontColor=default;fillColor=#d80073;" parent="WIyWlLk6GJQsqaUBKTNV-1" edge="1">
          <mxGeometry width="50" height="50" relative="1" as="geometry">
            <mxPoint x="786.63" y="360" as="sourcePoint" />
            <mxPoint x="880.63" y="360.40999999999997" as="targetPoint" />
          </mxGeometry>
        </mxCell>
        <mxCell id="kU64lX1X_HIVFnXj1w8X-71" value="" style="endArrow=block;html=1;rounded=0;entryX=0.21;entryY=1.002;entryDx=0;entryDy=0;entryPerimeter=0;strokeColor=#A50040;endFill=0;startArrow=oval;startFill=1;dashed=1;labelBackgroundColor=none;fontColor=default;fillColor=#d80073;" parent="WIyWlLk6GJQsqaUBKTNV-1" target="kU64lX1X_HIVFnXj1w8X-65" edge="1">
          <mxGeometry width="50" height="50" relative="1" as="geometry">
            <mxPoint x="750" y="490" as="sourcePoint" />
            <mxPoint x="892.37" y="290" as="targetPoint" />
            <Array as="points">
              <mxPoint x="897" y="490" />
            </Array>
          </mxGeometry>
        </mxCell>
        <mxCell id="kU64lX1X_HIVFnXj1w8X-86" value="" style="edgeStyle=elbowEdgeStyle;rounded=0;orthogonalLoop=1;jettySize=auto;html=1;endArrow=none;endFill=0;dashed=1;labelBackgroundColor=none;strokeColor=#006EAF;fontColor=default;fillColor=#1ba1e2;" parent="WIyWlLk6GJQsqaUBKTNV-1" source="kU64lX1X_HIVFnXj1w8X-73" target="kU64lX1X_HIVFnXj1w8X-49" edge="1">
          <mxGeometry relative="1" as="geometry" />
        </mxCell>
        <mxCell id="kU64lX1X_HIVFnXj1w8X-103" value="" style="edgeStyle=elbowEdgeStyle;rounded=0;orthogonalLoop=1;jettySize=auto;html=1;labelBackgroundColor=none;strokeColor=#006EAF;fontColor=default;fillColor=#1ba1e2;" parent="WIyWlLk6GJQsqaUBKTNV-1" source="kU64lX1X_HIVFnXj1w8X-73" target="kU64lX1X_HIVFnXj1w8X-102" edge="1">
          <mxGeometry relative="1" as="geometry" />
        </mxCell>
        <mxCell id="kU64lX1X_HIVFnXj1w8X-73" value="Create&lt;div&gt;Password&lt;/div&gt;" style="rounded=0;whiteSpace=wrap;html=1;labelBackgroundColor=none;fillColor=#182E3E;strokeColor=#FFFFFF;fontColor=#FFFFFF;" parent="WIyWlLk6GJQsqaUBKTNV-1" vertex="1">
          <mxGeometry x="267.74999999999994" y="720" width="80.25" height="40" as="geometry" />
        </mxCell>
        <mxCell id="kU64lX1X_HIVFnXj1w8X-87" value="" style="edgeStyle=elbowEdgeStyle;rounded=0;orthogonalLoop=1;jettySize=auto;html=1;dashed=1;endArrow=none;endFill=0;labelBackgroundColor=none;strokeColor=#006EAF;fontColor=default;fillColor=#1ba1e2;" parent="WIyWlLk6GJQsqaUBKTNV-1" source="kU64lX1X_HIVFnXj1w8X-74" target="kU64lX1X_HIVFnXj1w8X-49" edge="1">
          <mxGeometry relative="1" as="geometry" />
        </mxCell>
        <mxCell id="kU64lX1X_HIVFnXj1w8X-74" value="Edit&lt;div&gt;Password&lt;/div&gt;" style="rounded=0;whiteSpace=wrap;html=1;labelBackgroundColor=none;fillColor=#182E3E;strokeColor=#FFFFFF;fontColor=#FFFFFF;" parent="WIyWlLk6GJQsqaUBKTNV-1" vertex="1">
          <mxGeometry x="407.78999999999996" y="720" width="80.25" height="40" as="geometry" />
        </mxCell>
        <mxCell id="kU64lX1X_HIVFnXj1w8X-88" value="" style="edgeStyle=elbowEdgeStyle;rounded=0;orthogonalLoop=1;jettySize=auto;html=1;dashed=1;endArrow=none;endFill=0;labelBackgroundColor=none;strokeColor=#006EAF;fontColor=default;fillColor=#1ba1e2;" parent="WIyWlLk6GJQsqaUBKTNV-1" source="kU64lX1X_HIVFnXj1w8X-75" edge="1">
          <mxGeometry relative="1" as="geometry">
            <mxPoint x="593.25" y="700" as="targetPoint" />
          </mxGeometry>
        </mxCell>
        <mxCell id="oHZwISHsFdIdbKGNgW1y-11" value="" style="edgeStyle=orthogonalEdgeStyle;rounded=0;orthogonalLoop=1;jettySize=auto;html=1;labelBackgroundColor=none;strokeColor=#006EAF;fontColor=default;fillColor=#1ba1e2;" parent="WIyWlLk6GJQsqaUBKTNV-1" source="kU64lX1X_HIVFnXj1w8X-75" target="oHZwISHsFdIdbKGNgW1y-10" edge="1">
          <mxGeometry relative="1" as="geometry" />
        </mxCell>
        <mxCell id="kU64lX1X_HIVFnXj1w8X-75" value="Delete&lt;div&gt;Password&lt;/div&gt;" style="rounded=0;whiteSpace=wrap;html=1;labelBackgroundColor=none;fillColor=#182E3E;strokeColor=#FFFFFF;fontColor=#FFFFFF;" parent="WIyWlLk6GJQsqaUBKTNV-1" vertex="1">
          <mxGeometry x="553.0400000000001" y="720" width="80.25" height="40" as="geometry" />
        </mxCell>
        <mxCell id="kU64lX1X_HIVFnXj1w8X-89" value="" style="edgeStyle=elbowEdgeStyle;rounded=0;orthogonalLoop=1;jettySize=auto;html=1;dashed=1;endArrow=none;endFill=0;labelBackgroundColor=none;strokeColor=#006EAF;fontColor=default;fillColor=#1ba1e2;" parent="WIyWlLk6GJQsqaUBKTNV-1" source="kU64lX1X_HIVFnXj1w8X-76" target="kU64lX1X_HIVFnXj1w8X-49" edge="1">
          <mxGeometry relative="1" as="geometry" />
        </mxCell>
        <mxCell id="kU64lX1X_HIVFnXj1w8X-76" value="&lt;div&gt;Decrypt&lt;/div&gt;&lt;div&gt;Password&lt;/div&gt;" style="rounded=0;whiteSpace=wrap;html=1;labelBackgroundColor=none;fillColor=#182E3E;strokeColor=#FFFFFF;fontColor=#FFFFFF;" parent="WIyWlLk6GJQsqaUBKTNV-1" vertex="1">
          <mxGeometry x="720.0000000000001" y="720" width="80.25" height="40" as="geometry" />
        </mxCell>
        <mxCell id="kU64lX1X_HIVFnXj1w8X-90" value="" style="edgeStyle=elbowEdgeStyle;rounded=0;orthogonalLoop=1;jettySize=auto;html=1;dashed=1;endArrow=none;endFill=0;labelBackgroundColor=none;strokeColor=#006EAF;fontColor=default;fillColor=#1ba1e2;" parent="WIyWlLk6GJQsqaUBKTNV-1" source="kU64lX1X_HIVFnXj1w8X-77" edge="1">
          <mxGeometry relative="1" as="geometry">
            <mxPoint x="894.3813043478262" y="700" as="targetPoint" />
          </mxGeometry>
        </mxCell>
        <mxCell id="kU64lX1X_HIVFnXj1w8X-77" value="&lt;div&gt;Edit&lt;/div&gt;&lt;div&gt;Master&lt;/div&gt;" style="rounded=0;whiteSpace=wrap;html=1;labelBackgroundColor=none;fillColor=#182E3E;strokeColor=#FFFFFF;fontColor=#FFFFFF;" parent="WIyWlLk6GJQsqaUBKTNV-1" vertex="1">
          <mxGeometry x="853.99" y="720" width="80.25" height="40" as="geometry" />
        </mxCell>
        <mxCell id="kU64lX1X_HIVFnXj1w8X-91" value="" style="edgeStyle=elbowEdgeStyle;rounded=0;orthogonalLoop=1;jettySize=auto;html=1;dashed=1;endArrow=none;endFill=0;labelBackgroundColor=none;strokeColor=#006EAF;fontColor=default;fillColor=#1ba1e2;" parent="WIyWlLk6GJQsqaUBKTNV-1" source="kU64lX1X_HIVFnXj1w8X-78" edge="1">
          <mxGeometry relative="1" as="geometry">
            <mxPoint x="988.294347826087" y="700" as="targetPoint" />
          </mxGeometry>
        </mxCell>
        <mxCell id="kU64lX1X_HIVFnXj1w8X-78" value="&lt;div&gt;Exit&lt;/div&gt;" style="rounded=0;whiteSpace=wrap;html=1;labelBackgroundColor=none;fillColor=#182E3E;strokeColor=#FFFFFF;fontColor=#FFFFFF;" parent="WIyWlLk6GJQsqaUBKTNV-1" vertex="1">
          <mxGeometry x="958.23" y="720" width="60" height="40" as="geometry" />
        </mxCell>
        <mxCell id="kU64lX1X_HIVFnXj1w8X-80" value="Exit" style="rhombus;whiteSpace=wrap;html=1;shadow=0;fontFamily=Helvetica;fontSize=12;align=center;strokeWidth=1;spacing=6;spacingTop=-4;rounded=0;labelBackgroundColor=none;fillColor=#182E3E;strokeColor=#FFFFFF;fontColor=#FFFFFF;" parent="WIyWlLk6GJQsqaUBKTNV-1" vertex="1">
          <mxGeometry x="961.8600000000001" y="780" width="52.75" height="50" as="geometry" />
        </mxCell>
        <mxCell id="kU64lX1X_HIVFnXj1w8X-82" value="" style="edgeStyle=orthogonalEdgeStyle;rounded=0;orthogonalLoop=1;jettySize=auto;html=1;entryX=0.5;entryY=0;entryDx=0;entryDy=0;labelBackgroundColor=none;strokeColor=#006EAF;fontColor=default;fillColor=#1ba1e2;" parent="WIyWlLk6GJQsqaUBKTNV-1" target="kU64lX1X_HIVFnXj1w8X-80" edge="1">
          <mxGeometry relative="1" as="geometry">
            <mxPoint x="988.23" y="760" as="sourcePoint" />
            <mxPoint x="908.23" y="630" as="targetPoint" />
          </mxGeometry>
        </mxCell>
        <mxCell id="kU64lX1X_HIVFnXj1w8X-99" value="" style="endArrow=block;html=1;rounded=0;endFill=0;strokeColor=#2D7600;exitX=1.017;exitY=0.047;exitDx=0;exitDy=0;exitPerimeter=0;labelBackgroundColor=none;fontColor=default;fillColor=#60a917;" parent="WIyWlLk6GJQsqaUBKTNV-1" source="kU64lX1X_HIVFnXj1w8X-8" target="WIyWlLk6GJQsqaUBKTNV-6" edge="1">
          <mxGeometry width="50" height="50" relative="1" as="geometry">
            <mxPoint x="448.25" y="230" as="sourcePoint" />
            <mxPoint x="598.75" y="270" as="targetPoint" />
            <Array as="points">
              <mxPoint x="510" y="210" />
              <mxPoint x="510" y="270" />
              <mxPoint x="590" y="270" />
            </Array>
          </mxGeometry>
        </mxCell>
        <mxCell id="kU64lX1X_HIVFnXj1w8X-100" value="" style="endArrow=block;html=1;rounded=0;endFill=0;strokeColor=#2D7600;labelBackgroundColor=none;fontColor=default;fillColor=#60a917;" parent="WIyWlLk6GJQsqaUBKTNV-1" target="kU64lX1X_HIVFnXj1w8X-31" edge="1">
          <mxGeometry width="50" height="50" relative="1" as="geometry">
            <mxPoint x="510" y="270" as="sourcePoint" />
            <mxPoint x="560" y="470" as="targetPoint" />
            <Array as="points">
              <mxPoint x="510" y="470" />
              <mxPoint x="580" y="470" />
            </Array>
          </mxGeometry>
        </mxCell>
        <mxCell id="kU64lX1X_HIVFnXj1w8X-101" value="" style="endArrow=block;html=1;rounded=0;endFill=0;strokeColor=#2D7600;labelBackgroundColor=none;fontColor=default;fillColor=#60a917;" parent="WIyWlLk6GJQsqaUBKTNV-1" target="kU64lX1X_HIVFnXj1w8X-38" edge="1">
          <mxGeometry width="50" height="50" relative="1" as="geometry">
            <mxPoint x="510" y="470" as="sourcePoint" />
            <mxPoint x="570" y="600" as="targetPoint" />
            <Array as="points">
              <mxPoint x="510" y="590" />
              <mxPoint x="590" y="590" />
            </Array>
          </mxGeometry>
        </mxCell>
        <mxCell id="kU64lX1X_HIVFnXj1w8X-102" value="All fields&lt;div&gt;entered?&lt;/div&gt;" style="rhombus;whiteSpace=wrap;html=1;shadow=0;fontFamily=Helvetica;fontSize=12;align=center;strokeWidth=1;spacing=6;spacingTop=-4;rounded=0;labelBackgroundColor=none;fillColor=#182E3E;strokeColor=#FFFFFF;fontColor=#FFFFFF;" parent="WIyWlLk6GJQsqaUBKTNV-1" vertex="1">
          <mxGeometry x="267.74999999999994" y="780" width="80.25" height="80" as="geometry" />
        </mxCell>
        <mxCell id="kU64lX1X_HIVFnXj1w8X-107" value="Yes" style="rounded=0;html=1;jettySize=auto;orthogonalLoop=1;fontSize=11;endArrow=none;endFill=0;endSize=8;strokeWidth=1;shadow=0;labelBackgroundColor=none;edgeStyle=orthogonalEdgeStyle;exitX=0;exitY=0.5;exitDx=0;exitDy=0;strokeColor=#006EAF;fontColor=default;fillColor=#1ba1e2;" parent="WIyWlLk6GJQsqaUBKTNV-1" source="kU64lX1X_HIVFnXj1w8X-102" edge="1">
          <mxGeometry x="-0.8467" y="-10" relative="1" as="geometry">
            <mxPoint as="offset" />
            <mxPoint x="239.90999999999997" y="690" as="sourcePoint" />
            <mxPoint x="307.78999999999996" y="870" as="targetPoint" />
            <Array as="points">
              <mxPoint x="247.78999999999996" y="820" />
              <mxPoint x="247.78999999999996" y="870" />
            </Array>
          </mxGeometry>
        </mxCell>
        <mxCell id="kU64lX1X_HIVFnXj1w8X-112" value="" style="endArrow=none;html=1;rounded=0;entryX=0.75;entryY=1;entryDx=0;entryDy=0;strokeColor=#A50040;startArrow=none;startFill=0;labelBackgroundColor=none;fontColor=default;fillColor=#d80073;" parent="WIyWlLk6GJQsqaUBKTNV-1" edge="1">
          <mxGeometry width="50" height="50" relative="1" as="geometry">
            <mxPoint x="500" y="490" as="sourcePoint" />
            <mxPoint x="785.7000000000003" y="250" as="targetPoint" />
            <Array as="points">
              <mxPoint x="500" y="360" />
              <mxPoint x="786" y="360" />
            </Array>
          </mxGeometry>
        </mxCell>
        <mxCell id="kU64lX1X_HIVFnXj1w8X-113" value="" style="endArrow=none;html=1;rounded=0;strokeColor=#A50040;startArrow=block;startFill=0;exitX=0.472;exitY=1.071;exitDx=0;exitDy=0;exitPerimeter=0;labelBackgroundColor=none;fontColor=default;fillColor=#d80073;" parent="WIyWlLk6GJQsqaUBKTNV-1" source="kU64lX1X_HIVFnXj1w8X-23" edge="1">
          <mxGeometry width="50" height="50" relative="1" as="geometry">
            <mxPoint x="380" y="440" as="sourcePoint" />
            <mxPoint x="750" y="430" as="targetPoint" />
            <Array as="points">
              <mxPoint x="380" y="490" />
              <mxPoint x="750" y="490" />
            </Array>
          </mxGeometry>
        </mxCell>
        <mxCell id="kU64lX1X_HIVFnXj1w8X-116" value="Try Again?" style="rounded=0;whiteSpace=wrap;html=1;labelBackgroundColor=none;fillColor=#182E3E;strokeColor=#FFFFFF;fontColor=#FFFFFF;" parent="WIyWlLk6GJQsqaUBKTNV-1" vertex="1">
          <mxGeometry x="267.74999999999994" y="890" width="80.25" height="40" as="geometry" />
        </mxCell>
        <mxCell id="kU64lX1X_HIVFnXj1w8X-124" value="Yes" style="edgeStyle=orthogonalEdgeStyle;rounded=0;html=1;jettySize=auto;orthogonalLoop=1;fontSize=11;endArrow=classic;endFill=1;endSize=8;strokeWidth=1;shadow=0;labelBackgroundColor=none;exitX=0;exitY=0.5;exitDx=0;exitDy=0;strokeColor=#006EAF;fontColor=default;fillColor=#1ba1e2;" parent="WIyWlLk6GJQsqaUBKTNV-1" edge="1">
          <mxGeometry x="-0.8825" y="10" relative="1" as="geometry">
            <mxPoint as="offset" />
            <mxPoint x="265.74999999999994" y="910" as="sourcePoint" />
            <mxPoint x="267.74999999999994" y="740" as="targetPoint" />
            <Array as="points">
              <mxPoint x="230" y="910" />
              <mxPoint x="230" y="740" />
            </Array>
          </mxGeometry>
        </mxCell>
        <mxCell id="kU64lX1X_HIVFnXj1w8X-128" value="No" style="rounded=0;html=1;jettySize=auto;orthogonalLoop=1;fontSize=11;endArrow=classic;endFill=1;endSize=8;strokeWidth=1;shadow=0;labelBackgroundColor=none;edgeStyle=orthogonalEdgeStyle;strokeColor=#006EAF;fontColor=default;fillColor=#1ba1e2;" parent="WIyWlLk6GJQsqaUBKTNV-1" edge="1">
          <mxGeometry x="-0.9884" y="20" relative="1" as="geometry">
            <mxPoint as="offset" />
            <mxPoint x="307.73999999999995" y="860" as="sourcePoint" />
            <mxPoint x="307.99999999999994" y="890" as="targetPoint" />
            <Array as="points">
              <mxPoint x="307.99999999999994" y="860" />
            </Array>
          </mxGeometry>
        </mxCell>
        <mxCell id="kU64lX1X_HIVFnXj1w8X-129" value="" style="edgeStyle=elbowEdgeStyle;rounded=0;orthogonalLoop=1;jettySize=auto;html=1;labelBackgroundColor=none;strokeColor=#006EAF;fontColor=default;fillColor=#1ba1e2;" parent="WIyWlLk6GJQsqaUBKTNV-1" target="kU64lX1X_HIVFnXj1w8X-130" edge="1">
          <mxGeometry relative="1" as="geometry">
            <mxPoint x="893.99" y="760" as="sourcePoint" />
          </mxGeometry>
        </mxCell>
        <mxCell id="kU64lX1X_HIVFnXj1w8X-130" value="All fields&lt;div&gt;entered?&lt;/div&gt;" style="rhombus;whiteSpace=wrap;html=1;shadow=0;fontFamily=Helvetica;fontSize=12;align=center;strokeWidth=1;spacing=6;spacingTop=-4;rounded=0;labelBackgroundColor=none;fillColor=#182E3E;strokeColor=#FFFFFF;fontColor=#FFFFFF;" parent="WIyWlLk6GJQsqaUBKTNV-1" vertex="1">
          <mxGeometry x="853.99" y="780" width="80.25" height="80" as="geometry" />
        </mxCell>
        <mxCell id="kU64lX1X_HIVFnXj1w8X-132" value="Try Again?" style="rounded=0;whiteSpace=wrap;html=1;labelBackgroundColor=none;fillColor=#182E3E;strokeColor=#FFFFFF;fontColor=#FFFFFF;" parent="WIyWlLk6GJQsqaUBKTNV-1" vertex="1">
          <mxGeometry x="853.99" y="890" width="80.25" height="40" as="geometry" />
        </mxCell>
        <mxCell id="kU64lX1X_HIVFnXj1w8X-135" value="Yes" style="edgeStyle=orthogonalEdgeStyle;rounded=0;html=1;jettySize=auto;orthogonalLoop=1;fontSize=11;endArrow=classic;endFill=1;endSize=8;strokeWidth=1;shadow=0;labelBackgroundColor=none;exitX=1;exitY=0.5;exitDx=0;exitDy=0;entryX=1;entryY=0.5;entryDx=0;entryDy=0;strokeColor=#006EAF;fontColor=default;fillColor=#1ba1e2;" parent="WIyWlLk6GJQsqaUBKTNV-1" source="kU64lX1X_HIVFnXj1w8X-132" target="kU64lX1X_HIVFnXj1w8X-77" edge="1">
          <mxGeometry x="-0.8457" y="-10" relative="1" as="geometry">
            <mxPoint x="-10" y="10" as="offset" />
            <mxPoint x="1017.73" y="910" as="sourcePoint" />
            <mxPoint x="1019.73" y="740" as="targetPoint" />
            <Array as="points">
              <mxPoint x="949.74" y="910" />
              <mxPoint x="949.74" y="740" />
            </Array>
          </mxGeometry>
        </mxCell>
        <mxCell id="kU64lX1X_HIVFnXj1w8X-136" value="No" style="rounded=0;html=1;jettySize=auto;orthogonalLoop=1;fontSize=11;endArrow=classic;endFill=1;endSize=8;strokeWidth=1;shadow=0;labelBackgroundColor=none;edgeStyle=orthogonalEdgeStyle;strokeColor=#006EAF;fontColor=default;fillColor=#1ba1e2;" parent="WIyWlLk6GJQsqaUBKTNV-1" edge="1">
          <mxGeometry x="-0.9884" y="20" relative="1" as="geometry">
            <mxPoint as="offset" />
            <mxPoint x="893.98" y="860" as="sourcePoint" />
            <mxPoint x="894.24" y="890" as="targetPoint" />
            <Array as="points">
              <mxPoint x="894.24" y="860" />
            </Array>
          </mxGeometry>
        </mxCell>
        <mxCell id="oHZwISHsFdIdbKGNgW1y-3" value="" style="endArrow=block;html=1;rounded=0;strokeColor=#A50040;endFill=0;startArrow=none;startFill=0;entryX=0.319;entryY=1.167;entryDx=0;entryDy=0;entryPerimeter=0;labelBackgroundColor=none;fontColor=default;fillColor=#d80073;" parent="WIyWlLk6GJQsqaUBKTNV-1" target="kU64lX1X_HIVFnXj1w8X-26" edge="1">
          <mxGeometry width="50" height="50" relative="1" as="geometry">
            <mxPoint x="250" y="820" as="sourcePoint" />
            <mxPoint x="237.85000000000002" y="411.05" as="targetPoint" />
            <Array as="points">
              <mxPoint x="210" y="820" />
            </Array>
          </mxGeometry>
        </mxCell>
        <mxCell id="vOvHCYOqFdmL3Q4cGMV2-24" value="Encrypted" style="edgeLabel;html=1;align=center;verticalAlign=middle;resizable=0;points=[];rotation=-90;rounded=0;labelBackgroundColor=none;fontColor=#FFFFFF;" parent="oHZwISHsFdIdbKGNgW1y-3" vertex="1" connectable="0">
          <mxGeometry x="0.327" y="-1" relative="1" as="geometry">
            <mxPoint x="-1" y="-105" as="offset" />
          </mxGeometry>
        </mxCell>
        <mxCell id="oHZwISHsFdIdbKGNgW1y-7" value="No" style="rounded=0;html=1;jettySize=auto;orthogonalLoop=1;fontSize=11;endArrow=classic;endFill=1;endSize=8;strokeWidth=1;shadow=0;labelBackgroundColor=none;edgeStyle=orthogonalEdgeStyle;exitX=1;exitY=0.5;exitDx=0;exitDy=0;entryX=0.148;entryY=0.983;entryDx=0;entryDy=0;entryPerimeter=0;strokeColor=#006EAF;fontColor=default;fillColor=#1ba1e2;" parent="WIyWlLk6GJQsqaUBKTNV-1" source="kU64lX1X_HIVFnXj1w8X-116" target="kU64lX1X_HIVFnXj1w8X-49" edge="1">
          <mxGeometry x="-0.8924" y="-10" relative="1" as="geometry">
            <mxPoint x="-10" y="10" as="offset" />
            <mxPoint x="407.78999999999996" y="895" as="sourcePoint" />
            <mxPoint x="360" y="710" as="targetPoint" />
            <Array as="points">
              <mxPoint x="360" y="910" />
              <mxPoint x="360" y="699" />
            </Array>
          </mxGeometry>
        </mxCell>
        <mxCell id="oHZwISHsFdIdbKGNgW1y-8" value="No" style="rounded=0;html=1;jettySize=auto;orthogonalLoop=1;fontSize=11;endArrow=classic;endFill=1;endSize=8;strokeWidth=1;shadow=0;labelBackgroundColor=none;edgeStyle=orthogonalEdgeStyle;exitX=0;exitY=0.5;exitDx=0;exitDy=0;strokeColor=#006EAF;fontColor=default;fillColor=#1ba1e2;" parent="WIyWlLk6GJQsqaUBKTNV-1" source="kU64lX1X_HIVFnXj1w8X-132" edge="1">
          <mxGeometry x="-0.8839" y="10" relative="1" as="geometry">
            <mxPoint as="offset" />
            <mxPoint x="813.99" y="910" as="sourcePoint" />
            <mxPoint x="830.44" y="700" as="targetPoint" />
            <Array as="points">
              <mxPoint x="830.44" y="910" />
              <mxPoint x="830.44" y="700" />
            </Array>
          </mxGeometry>
        </mxCell>
        <mxCell id="oHZwISHsFdIdbKGNgW1y-10" value="Does a&lt;div&gt;password&lt;/div&gt;&lt;div&gt;exist?&lt;/div&gt;" style="rhombus;whiteSpace=wrap;html=1;shadow=0;fontFamily=Helvetica;fontSize=12;align=center;strokeWidth=1;spacing=6;spacingTop=-4;rounded=0;labelBackgroundColor=none;fillColor=#182E3E;strokeColor=#FFFFFF;fontColor=#FFFFFF;" parent="WIyWlLk6GJQsqaUBKTNV-1" vertex="1">
          <mxGeometry x="543.17" y="790" width="100" height="80" as="geometry" />
        </mxCell>
        <mxCell id="oHZwISHsFdIdbKGNgW1y-17" value="" style="endArrow=none;html=1;rounded=0;exitX=0.523;exitY=1.012;exitDx=0;exitDy=0;exitPerimeter=0;entryX=0.5;entryY=1;entryDx=0;entryDy=0;labelBackgroundColor=none;strokeColor=#006EAF;fontColor=default;fillColor=#1ba1e2;" parent="WIyWlLk6GJQsqaUBKTNV-1" source="kU64lX1X_HIVFnXj1w8X-74" target="kU64lX1X_HIVFnXj1w8X-76" edge="1">
          <mxGeometry width="50" height="50" relative="1" as="geometry">
            <mxPoint x="442.92" y="820" as="sourcePoint" />
            <mxPoint x="740" y="760" as="targetPoint" />
            <Array as="points">
              <mxPoint x="450" y="770" />
              <mxPoint x="760" y="770" />
            </Array>
          </mxGeometry>
        </mxCell>
        <mxCell id="oHZwISHsFdIdbKGNgW1y-19" value="No" style="rounded=0;html=1;jettySize=auto;orthogonalLoop=1;fontSize=11;endArrow=classic;endFill=1;endSize=8;strokeWidth=1;shadow=0;labelBackgroundColor=none;edgeStyle=orthogonalEdgeStyle;strokeColor=#006EAF;fontColor=default;fillColor=#1ba1e2;" parent="WIyWlLk6GJQsqaUBKTNV-1" edge="1">
          <mxGeometry x="-0.9199" y="-10" relative="1" as="geometry">
            <mxPoint as="offset" />
            <mxPoint x="643" y="830" as="sourcePoint" />
            <mxPoint x="655" y="700" as="targetPoint" />
            <Array as="points">
              <mxPoint x="655" y="830" />
              <mxPoint x="655" y="700" />
            </Array>
          </mxGeometry>
        </mxCell>
        <mxCell id="vOvHCYOqFdmL3Q4cGMV2-0" value="List&lt;br&gt;Passwords" style="rounded=0;whiteSpace=wrap;html=1;labelBackgroundColor=none;fillColor=#182E3E;strokeColor=#FFFFFF;fontColor=#FFFFFF;" parent="WIyWlLk6GJQsqaUBKTNV-1" vertex="1">
          <mxGeometry x="553.04" y="890" width="80.25" height="40" as="geometry" />
        </mxCell>
        <mxCell id="vOvHCYOqFdmL3Q4cGMV2-1" value="Yes" style="rounded=0;html=1;jettySize=auto;orthogonalLoop=1;fontSize=11;endArrow=classic;endFill=1;endSize=8;strokeWidth=1;shadow=0;labelBackgroundColor=none;edgeStyle=orthogonalEdgeStyle;strokeColor=#006EAF;fontColor=default;fillColor=#1ba1e2;" parent="WIyWlLk6GJQsqaUBKTNV-1" edge="1">
          <mxGeometry x="-0.3207" y="22" relative="1" as="geometry">
            <mxPoint as="offset" />
            <mxPoint x="593.03" y="870" as="sourcePoint" />
            <mxPoint x="593" y="890" as="targetPoint" />
            <Array as="points">
              <mxPoint x="593.29" y="870" />
            </Array>
          </mxGeometry>
        </mxCell>
        <mxCell id="vOvHCYOqFdmL3Q4cGMV2-6" value="" style="edgeStyle=elbowEdgeStyle;rounded=0;orthogonalLoop=1;jettySize=auto;html=1;dashed=1;endArrow=none;endFill=0;entryX=0;entryY=0.5;entryDx=0;entryDy=0;labelBackgroundColor=none;strokeColor=#006EAF;fontColor=default;fillColor=#1ba1e2;" parent="WIyWlLk6GJQsqaUBKTNV-1" source="vOvHCYOqFdmL3Q4cGMV2-7" target="vOvHCYOqFdmL3Q4cGMV2-0" edge="1">
          <mxGeometry relative="1" as="geometry">
            <mxPoint x="540" y="910" as="targetPoint" />
            <Array as="points">
              <mxPoint x="448" y="910" />
            </Array>
          </mxGeometry>
        </mxCell>
        <mxCell id="vOvHCYOqFdmL3Q4cGMV2-7" value="Edit&lt;div&gt;Password&lt;/div&gt;" style="rounded=0;whiteSpace=wrap;html=1;labelBackgroundColor=none;fillColor=#182E3E;strokeColor=#FFFFFF;fontColor=#FFFFFF;" parent="WIyWlLk6GJQsqaUBKTNV-1" vertex="1">
          <mxGeometry x="407.78999999999996" y="950" width="80.25" height="40" as="geometry" />
        </mxCell>
        <mxCell id="vOvHCYOqFdmL3Q4cGMV2-8" value="" style="edgeStyle=elbowEdgeStyle;rounded=0;orthogonalLoop=1;jettySize=auto;html=1;dashed=1;endArrow=none;endFill=0;labelBackgroundColor=none;strokeColor=#006EAF;fontColor=default;fillColor=#1ba1e2;" parent="WIyWlLk6GJQsqaUBKTNV-1" source="vOvHCYOqFdmL3Q4cGMV2-9" edge="1">
          <mxGeometry relative="1" as="geometry">
            <mxPoint x="593" y="930" as="targetPoint" />
          </mxGeometry>
        </mxCell>
        <mxCell id="vOvHCYOqFdmL3Q4cGMV2-35" value="" style="edgeStyle=orthogonalEdgeStyle;rounded=0;orthogonalLoop=1;jettySize=auto;html=1;labelBackgroundColor=none;strokeColor=#006EAF;fontColor=default;fillColor=#1ba1e2;" parent="WIyWlLk6GJQsqaUBKTNV-1" source="vOvHCYOqFdmL3Q4cGMV2-9" target="vOvHCYOqFdmL3Q4cGMV2-31" edge="1">
          <mxGeometry relative="1" as="geometry" />
        </mxCell>
        <mxCell id="vOvHCYOqFdmL3Q4cGMV2-9" value="Delete&lt;div&gt;Password&lt;/div&gt;" style="rounded=0;whiteSpace=wrap;html=1;labelBackgroundColor=none;fillColor=#182E3E;strokeColor=#FFFFFF;fontColor=#FFFFFF;" parent="WIyWlLk6GJQsqaUBKTNV-1" vertex="1">
          <mxGeometry x="553.0400000000001" y="950" width="80.25" height="40" as="geometry" />
        </mxCell>
        <mxCell id="vOvHCYOqFdmL3Q4cGMV2-10" value="" style="edgeStyle=elbowEdgeStyle;rounded=0;orthogonalLoop=1;jettySize=auto;html=1;dashed=1;endArrow=none;endFill=0;entryX=1;entryY=0.5;entryDx=0;entryDy=0;exitX=0.5;exitY=0;exitDx=0;exitDy=0;labelBackgroundColor=none;strokeColor=#006EAF;fontColor=default;fillColor=#1ba1e2;" parent="WIyWlLk6GJQsqaUBKTNV-1" source="vOvHCYOqFdmL3Q4cGMV2-11" target="vOvHCYOqFdmL3Q4cGMV2-0" edge="1">
          <mxGeometry relative="1" as="geometry">
            <mxPoint x="630" y="910" as="targetPoint" />
            <mxPoint x="760" y="947" as="sourcePoint" />
            <Array as="points">
              <mxPoint x="760" y="930" />
            </Array>
          </mxGeometry>
        </mxCell>
        <mxCell id="9grA41xExo2nog3lk7L1-3" value="Decrypted" style="edgeLabel;html=1;align=center;verticalAlign=middle;resizable=0;points=[];rotation=-90;rounded=0;labelBackgroundColor=none;fontColor=#FFFFFF;" parent="vOvHCYOqFdmL3Q4cGMV2-10" vertex="1" connectable="0">
          <mxGeometry x="-0.6615" y="-1" relative="1" as="geometry">
            <mxPoint x="-1" y="-10" as="offset" />
          </mxGeometry>
        </mxCell>
        <mxCell id="vOvHCYOqFdmL3Q4cGMV2-28" value="" style="edgeStyle=orthogonalEdgeStyle;rounded=0;orthogonalLoop=1;jettySize=auto;html=1;labelBackgroundColor=none;strokeColor=#006EAF;fontColor=default;fillColor=#1ba1e2;" parent="WIyWlLk6GJQsqaUBKTNV-1" source="vOvHCYOqFdmL3Q4cGMV2-11" target="vOvHCYOqFdmL3Q4cGMV2-25" edge="1">
          <mxGeometry relative="1" as="geometry" />
        </mxCell>
        <mxCell id="vOvHCYOqFdmL3Q4cGMV2-11" value="&lt;div&gt;Decrypt&lt;/div&gt;&lt;div&gt;Password&lt;/div&gt;" style="rounded=0;whiteSpace=wrap;html=1;labelBackgroundColor=none;fillColor=#182E3E;strokeColor=#FFFFFF;fontColor=#FFFFFF;" parent="WIyWlLk6GJQsqaUBKTNV-1" vertex="1">
          <mxGeometry x="720.0000000000001" y="1008" width="80.25" height="40" as="geometry" />
        </mxCell>
        <mxCell id="vOvHCYOqFdmL3Q4cGMV2-13" value="" style="edgeStyle=elbowEdgeStyle;rounded=0;orthogonalLoop=1;jettySize=auto;html=1;labelBackgroundColor=none;strokeColor=#006EAF;fontColor=default;fillColor=#1ba1e2;" parent="WIyWlLk6GJQsqaUBKTNV-1" edge="1">
          <mxGeometry relative="1" as="geometry">
            <mxPoint x="448" y="990" as="sourcePoint" />
            <mxPoint x="447.66666666666674" y="1008.207684319834" as="targetPoint" />
          </mxGeometry>
        </mxCell>
        <mxCell id="vOvHCYOqFdmL3Q4cGMV2-22" value="" style="edgeStyle=orthogonalEdgeStyle;rounded=0;orthogonalLoop=1;jettySize=auto;html=1;labelBackgroundColor=none;strokeColor=#23445D;fontColor=default;" parent="WIyWlLk6GJQsqaUBKTNV-1" source="vOvHCYOqFdmL3Q4cGMV2-14" target="vOvHCYOqFdmL3Q4cGMV2-16" edge="1">
          <mxGeometry relative="1" as="geometry" />
        </mxCell>
        <mxCell id="vOvHCYOqFdmL3Q4cGMV2-14" value="All fields&lt;div&gt;entered?&lt;/div&gt;" style="rhombus;whiteSpace=wrap;html=1;shadow=0;fontFamily=Helvetica;fontSize=12;align=center;strokeWidth=1;spacing=6;spacingTop=-4;rounded=0;labelBackgroundColor=none;fillColor=#182E3E;strokeColor=#FFFFFF;fontColor=#FFFFFF;" parent="WIyWlLk6GJQsqaUBKTNV-1" vertex="1">
          <mxGeometry x="407.78999999999996" y="1008" width="80.25" height="80" as="geometry" />
        </mxCell>
        <mxCell id="vOvHCYOqFdmL3Q4cGMV2-15" value="Yes" style="rounded=0;html=1;jettySize=auto;orthogonalLoop=1;fontSize=11;endArrow=none;endFill=0;endSize=8;strokeWidth=1;shadow=0;labelBackgroundColor=none;edgeStyle=orthogonalEdgeStyle;exitX=0;exitY=0.5;exitDx=0;exitDy=0;strokeColor=#006EAF;fontColor=default;fillColor=#1ba1e2;" parent="WIyWlLk6GJQsqaUBKTNV-1" edge="1">
          <mxGeometry x="-0.8467" y="-10" relative="1" as="geometry">
            <mxPoint as="offset" />
            <mxPoint x="407.75" y="1048" as="sourcePoint" />
            <mxPoint x="447.78999999999996" y="1098" as="targetPoint" />
            <Array as="points">
              <mxPoint x="387.78999999999996" y="1048" />
              <mxPoint x="387.78999999999996" y="1098" />
            </Array>
          </mxGeometry>
        </mxCell>
        <mxCell id="vOvHCYOqFdmL3Q4cGMV2-16" value="Try Again?" style="rounded=0;whiteSpace=wrap;html=1;labelBackgroundColor=none;fillColor=#182E3E;strokeColor=#FFFFFF;fontColor=#FFFFFF;" parent="WIyWlLk6GJQsqaUBKTNV-1" vertex="1">
          <mxGeometry x="407.74999999999994" y="1118" width="80.25" height="40" as="geometry" />
        </mxCell>
        <mxCell id="vOvHCYOqFdmL3Q4cGMV2-17" value="No" style="edgeStyle=orthogonalEdgeStyle;rounded=0;html=1;jettySize=auto;orthogonalLoop=1;fontSize=11;endArrow=classic;endFill=1;endSize=8;strokeWidth=1;shadow=0;labelBackgroundColor=none;exitX=0;exitY=0.5;exitDx=0;exitDy=0;strokeColor=#006EAF;fontColor=default;fillColor=#1ba1e2;" parent="WIyWlLk6GJQsqaUBKTNV-1" edge="1">
          <mxGeometry x="-0.9374" y="12" relative="1" as="geometry">
            <mxPoint as="offset" />
            <mxPoint x="405.74999999999994" y="1138" as="sourcePoint" />
            <mxPoint x="380" y="700" as="targetPoint" />
            <Array as="points">
              <mxPoint x="380" y="1138" />
              <mxPoint x="380" y="701" />
            </Array>
          </mxGeometry>
        </mxCell>
        <mxCell id="vOvHCYOqFdmL3Q4cGMV2-18" value="No" style="rounded=0;html=1;jettySize=auto;orthogonalLoop=1;fontSize=11;endArrow=classic;endFill=1;endSize=8;strokeWidth=1;shadow=0;labelBackgroundColor=none;edgeStyle=orthogonalEdgeStyle;strokeColor=#006EAF;fontColor=default;fillColor=#1ba1e2;" parent="WIyWlLk6GJQsqaUBKTNV-1" edge="1">
          <mxGeometry x="-0.8538" y="22" relative="1" as="geometry">
            <mxPoint as="offset" />
            <mxPoint x="447.73999999999995" y="1088" as="sourcePoint" />
            <mxPoint x="447.99999999999994" y="1118" as="targetPoint" />
            <Array as="points">
              <mxPoint x="447.99999999999994" y="1088" />
            </Array>
          </mxGeometry>
        </mxCell>
        <mxCell id="vOvHCYOqFdmL3Q4cGMV2-19" value="" style="endArrow=none;html=1;rounded=0;strokeColor=#A50040;endFill=0;startArrow=none;startFill=0;labelBackgroundColor=none;fontColor=default;fillColor=#d80073;" parent="WIyWlLk6GJQsqaUBKTNV-1" edge="1">
          <mxGeometry width="50" height="50" relative="1" as="geometry">
            <mxPoint x="390" y="1048" as="sourcePoint" />
            <mxPoint x="210" y="820" as="targetPoint" />
            <Array as="points">
              <mxPoint x="210" y="1050" />
            </Array>
          </mxGeometry>
        </mxCell>
        <mxCell id="vOvHCYOqFdmL3Q4cGMV2-20" value="Yes" style="rounded=0;html=1;jettySize=auto;orthogonalLoop=1;fontSize=11;endArrow=classic;endFill=1;endSize=8;strokeWidth=1;shadow=0;labelBackgroundColor=none;edgeStyle=orthogonalEdgeStyle;exitX=1;exitY=0.5;exitDx=0;exitDy=0;entryX=1;entryY=0.5;entryDx=0;entryDy=0;strokeColor=#006EAF;fontColor=default;fillColor=#1ba1e2;" parent="WIyWlLk6GJQsqaUBKTNV-1" source="vOvHCYOqFdmL3Q4cGMV2-16" target="kU64lX1X_HIVFnXj1w8X-74" edge="1">
          <mxGeometry x="-0.9087" y="-12" relative="1" as="geometry">
            <mxPoint x="-12" y="12" as="offset" />
            <mxPoint x="517.79" y="1123" as="sourcePoint" />
            <mxPoint x="508" y="928" as="targetPoint" />
            <Array as="points">
              <mxPoint x="508" y="1138" />
              <mxPoint x="508" y="740" />
            </Array>
          </mxGeometry>
        </mxCell>
        <mxCell id="vOvHCYOqFdmL3Q4cGMV2-26" value="No" style="edgeStyle=orthogonalEdgeStyle;rounded=0;html=1;jettySize=auto;orthogonalLoop=1;fontSize=11;endArrow=classic;endFill=1;endSize=8;strokeWidth=1;shadow=0;labelBackgroundColor=none;exitX=0;exitY=0.5;exitDx=0;exitDy=0;strokeColor=#006EAF;fontColor=default;fillColor=#1ba1e2;" parent="WIyWlLk6GJQsqaUBKTNV-1" source="vOvHCYOqFdmL3Q4cGMV2-25" edge="1">
          <mxGeometry x="-0.8869" y="10" relative="1" as="geometry">
            <mxPoint as="offset" />
            <mxPoint x="720" y="1030" as="sourcePoint" />
            <mxPoint x="696.12" y="700" as="targetPoint" />
            <Array as="points">
              <mxPoint x="720" y="1110" />
              <mxPoint x="696" y="1110" />
            </Array>
          </mxGeometry>
        </mxCell>
        <mxCell id="vOvHCYOqFdmL3Q4cGMV2-27" value="Yes" style="rounded=0;html=1;jettySize=auto;orthogonalLoop=1;fontSize=11;endArrow=classic;endFill=1;endSize=8;strokeWidth=1;shadow=0;labelBackgroundColor=none;edgeStyle=orthogonalEdgeStyle;exitX=1;exitY=0.5;exitDx=0;exitDy=0;entryX=1;entryY=0.5;entryDx=0;entryDy=0;strokeColor=#006EAF;fontColor=default;fillColor=#1ba1e2;" parent="WIyWlLk6GJQsqaUBKTNV-1" source="vOvHCYOqFdmL3Q4cGMV2-25" edge="1">
          <mxGeometry x="-0.904" y="-12" relative="1" as="geometry">
            <mxPoint as="offset" />
            <mxPoint x="833.91" y="1123" as="sourcePoint" />
            <mxPoint x="804.12" y="740" as="targetPoint" />
            <Array as="points">
              <mxPoint x="824" y="1108" />
              <mxPoint x="824" y="740" />
            </Array>
          </mxGeometry>
        </mxCell>
        <mxCell id="vOvHCYOqFdmL3Q4cGMV2-31" value="Try Again?" style="rounded=0;whiteSpace=wrap;html=1;labelBackgroundColor=none;fillColor=#182E3E;strokeColor=#FFFFFF;fontColor=#FFFFFF;" parent="WIyWlLk6GJQsqaUBKTNV-1" vertex="1">
          <mxGeometry x="553.0399999999998" y="1008" width="80.25" height="40" as="geometry" />
        </mxCell>
        <mxCell id="vOvHCYOqFdmL3Q4cGMV2-32" value="No" style="edgeStyle=orthogonalEdgeStyle;rounded=0;html=1;jettySize=auto;orthogonalLoop=1;fontSize=11;endArrow=classic;endFill=1;endSize=8;strokeWidth=1;shadow=0;labelBackgroundColor=none;exitX=1;exitY=0.5;exitDx=0;exitDy=0;strokeColor=#006EAF;fontColor=default;fillColor=#1ba1e2;" parent="WIyWlLk6GJQsqaUBKTNV-1" source="vOvHCYOqFdmL3Q4cGMV2-31" edge="1">
          <mxGeometry x="-0.8986" y="-10" relative="1" as="geometry">
            <mxPoint as="offset" />
            <mxPoint x="635" y="1030" as="sourcePoint" />
            <mxPoint x="670" y="700" as="targetPoint" />
            <Array as="points">
              <mxPoint x="633" y="1030" />
              <mxPoint x="670" y="1030" />
              <mxPoint x="670" y="700" />
            </Array>
          </mxGeometry>
        </mxCell>
        <mxCell id="vOvHCYOqFdmL3Q4cGMV2-33" value="Yes" style="rounded=0;html=1;jettySize=auto;orthogonalLoop=1;fontSize=11;endArrow=classic;endFill=1;endSize=8;strokeWidth=1;shadow=0;labelBackgroundColor=none;edgeStyle=orthogonalEdgeStyle;exitX=0;exitY=0.5;exitDx=0;exitDy=0;entryX=0;entryY=0.5;entryDx=0;entryDy=0;strokeColor=#006EAF;fontColor=default;fillColor=#1ba1e2;" parent="WIyWlLk6GJQsqaUBKTNV-1" source="vOvHCYOqFdmL3Q4cGMV2-31" target="kU64lX1X_HIVFnXj1w8X-75" edge="1">
          <mxGeometry x="-0.9263" y="12" relative="1" as="geometry">
            <mxPoint as="offset" />
            <mxPoint x="519.5099999999999" y="1028" as="sourcePoint" />
            <mxPoint x="523.38" y="740" as="targetPoint" />
            <Array as="points">
              <mxPoint x="520" y="1028" />
              <mxPoint x="520" y="740" />
            </Array>
          </mxGeometry>
        </mxCell>
        <mxCell id="vOvHCYOqFdmL3Q4cGMV2-36" value="" style="endArrow=oval;html=1;rounded=0;strokeColor=#A50040;endFill=1;startArrow=none;startFill=0;dashed=1;labelBackgroundColor=none;fontColor=default;fillColor=#d80073;" parent="WIyWlLk6GJQsqaUBKTNV-1" edge="1">
          <mxGeometry width="50" height="50" relative="1" as="geometry">
            <mxPoint x="210" y="1080" as="sourcePoint" />
            <mxPoint x="210" y="820" as="targetPoint" />
            <Array as="points">
              <mxPoint x="190" y="1080" />
              <mxPoint x="190" y="820" />
            </Array>
          </mxGeometry>
        </mxCell>
        <mxCell id="vOvHCYOqFdmL3Q4cGMV2-25" value="Try Again?" style="rounded=0;whiteSpace=wrap;html=1;labelBackgroundColor=none;fillColor=#182E3E;strokeColor=#FFFFFF;fontColor=#FFFFFF;" parent="WIyWlLk6GJQsqaUBKTNV-1" vertex="1">
          <mxGeometry x="719.9999999999999" y="1088" width="80.25" height="40" as="geometry" />
        </mxCell>
      </root>
    </mxGraphModel>
  </diagram>
</mxfile>
